<svg width="84" height="84" viewBox="0 0 84 84" fill="none" xmlns="http://www.w3.org/2000/svg">
<path d="M64.25 14.7502C63.2611 14.7502 62.2944 15.0434 61.4722 15.5928C60.6499 16.1422 60.0091 16.9231 59.6306 17.8367C59.2522 18.7504 59.1532 19.7557 59.3461 20.7256C59.539 21.6955 60.0152 22.5864 60.7145 23.2857C61.4138 23.985 62.3047 24.4612 63.2746 24.6541C64.2445 24.847 65.2498 24.748 66.1635 24.3696C67.0771 23.9911 67.858 23.3503 68.4074 22.528C68.9568 21.7058 69.25 20.7391 69.25 19.7502C69.25 18.4241 68.7233 17.1523 67.7856 16.2146C66.8479 15.2769 65.5761 14.7502 64.25 14.7502V14.7502ZM83.4167 24.8335C83.3357 21.3764 82.6882 17.956 81.5 14.7085C80.4406 11.9299 78.7916 9.41382 76.6667 7.3335C74.6035 5.19777 72.0815 3.55923 69.2917 2.54183C66.0528 1.3175 62.6286 0.655204 59.1667 0.583496C54.75 0.333496 53.3334 0.333496 42 0.333496C30.6667 0.333496 29.25 0.333496 24.8334 0.583496C21.3715 0.655204 17.9473 1.3175 14.7084 2.54183C11.9237 3.56953 9.40393 5.20666 7.33337 7.3335C5.19765 9.39674 3.55911 11.9187 2.54171 14.7085C1.31738 17.9474 0.655082 21.3716 0.583374 24.8335C0.333374 29.2502 0.333374 30.6668 0.333374 42.0002C0.333374 53.3335 0.333374 54.7502 0.583374 59.1668C0.655082 62.6287 1.31738 66.0529 2.54171 69.2918C3.55911 72.0817 5.19765 74.6036 7.33337 76.6668C9.40393 78.7937 11.9237 80.4308 14.7084 81.4585C17.9473 82.6828 21.3715 83.3451 24.8334 83.4168C29.25 83.6668 30.6667 83.6668 42 83.6668C53.3334 83.6668 54.75 83.6668 59.1667 83.4168C62.6286 83.3451 66.0528 82.6828 69.2917 81.4585C72.0815 80.4411 74.6035 78.8026 76.6667 76.6668C78.801 74.5942 80.4514 72.076 81.5 69.2918C82.6882 66.0443 83.3357 62.6239 83.4167 59.1668C83.4167 54.7502 83.6667 53.3335 83.6667 42.0002C83.6667 30.6668 83.6667 29.2502 83.4167 24.8335V24.8335ZM75.9167 58.6668C75.8864 61.3117 75.4073 63.9323 74.5 66.4168C73.8348 68.2301 72.7662 69.8686 71.375 71.2085C70.0236 72.5856 68.3885 73.652 66.5834 74.3335C64.0988 75.2408 61.4783 75.7198 58.8334 75.7502C54.6667 75.9585 53.125 76.0002 42.1667 76.0002C31.2084 76.0002 29.6667 76.0002 25.5 75.7502C22.7538 75.8016 20.0192 75.3787 17.4167 74.5002C15.6908 73.7838 14.1307 72.7201 12.8334 71.3752C11.4504 70.0366 10.3952 68.3968 9.75004 66.5835C8.73278 64.0633 8.16855 61.3833 8.08337 58.6668C8.08337 54.5002 7.83337 52.9585 7.83337 42.0002C7.83337 31.0418 7.83337 29.5002 8.08337 25.3335C8.10205 22.6296 8.59567 19.9499 9.54171 17.4168C10.2752 15.6581 11.4011 14.0904 12.8334 12.8335C14.0993 11.4009 15.6637 10.2631 17.4167 9.50016C19.9565 8.58368 22.6334 8.10466 25.3334 8.0835C29.5 8.0835 31.0417 7.8335 42 7.8335C52.9584 7.8335 54.5 7.8335 58.6667 8.0835C61.3116 8.11383 63.9321 8.59286 66.4167 9.50016C68.3102 10.2029 70.0096 11.3454 71.375 12.8335C72.7405 14.1134 73.8074 15.6782 74.5 17.4168C75.4261 19.9541 75.9054 22.6326 75.9167 25.3335C76.125 29.5002 76.1667 31.0418 76.1667 42.0002C76.1667 52.9585 76.125 54.5002 75.9167 58.6668ZM42 20.6252C37.7742 20.6334 33.6457 21.894 30.1361 24.2477C26.6265 26.6015 23.8933 29.9426 22.2818 33.8491C20.6704 37.7556 20.2531 42.0521 21.0825 46.1957C21.912 50.3393 23.951 54.1441 26.942 57.1292C29.933 60.1144 33.7418 62.1461 37.887 62.9674C42.0322 63.7888 46.3278 63.3631 50.2312 61.7441C54.1345 60.125 57.4704 57.3853 59.8172 53.8711C62.1641 50.3569 63.4167 46.226 63.4167 42.0002C63.4222 39.1881 62.8717 36.4027 61.7969 33.8041C60.722 31.2056 59.144 28.8452 57.1537 26.8587C55.1633 24.8722 52.7998 23.2988 50.1992 22.229C47.5986 21.1592 44.8121 20.6142 42 20.6252V20.6252ZM42 55.8752C39.2558 55.8752 36.5732 55.0614 34.2915 53.5368C32.0098 52.0122 30.2314 49.8452 29.1812 47.3099C28.131 44.7746 27.8563 41.9848 28.3916 39.2933C28.927 36.6018 30.2485 34.1295 32.1889 32.1891C34.1294 30.2486 36.6017 28.9271 39.2932 28.3918C41.9846 27.8564 44.7744 28.1312 47.3098 29.1813C49.8451 30.2315 52.0121 32.0099 53.5367 34.2916C55.0613 36.5734 55.875 39.2559 55.875 42.0002C55.875 43.8223 55.5162 45.6265 54.8189 47.3099C54.1216 48.9933 53.0996 50.5229 51.8111 51.8113C50.5227 53.0997 48.9932 54.1217 47.3098 54.819C45.6264 55.5163 43.8221 55.8752 42 55.8752V55.8752Z" fill="white"/>
</svg>
