<svg width="247" height="220" viewBox="0 0 247 220" fill="none" xmlns="http://www.w3.org/2000/svg">
<g clip-path="url(#clip0_73_320)">
<path d="M222.705 114.492C222.737 141.714 212.447 167.889 193.998 187.515C192.886 188.706 191.744 189.868 190.572 191.001C188.786 192.739 186.94 194.409 185.033 196.011C167.203 211.033 144.944 219.474 121.847 219.973C121.078 219.991 120.305 220 119.53 220C101.11 220 77.9411 209.939 56.9158 196.011C55.1763 194.859 53.4522 193.68 51.7437 192.474C50.9451 191.916 50.1503 191.35 49.3595 190.776C41.2503 184.92 33.5531 178.49 26.3246 171.532C21.5918 166.99 17.1537 162.138 13.0386 157.005C-3.11662 136.627 -6.67988 118.266 16.3521 114.492C19.079 114.046 21.7255 113.57 24.2918 113.063C28.0089 112.333 31.5664 111.544 34.9641 110.696C39.5409 109.559 43.8408 108.326 47.8639 106.996C49.2172 106.551 50.5395 106.096 51.8308 105.633C70.922 98.7761 83.6998 89.8346 92.3974 80.1327C93.8727 78.4905 95.2327 76.8285 96.4776 75.1467C98.3822 72.5868 100.112 69.8959 101.656 67.093C103.785 63.1986 105.575 59.1193 107.002 54.9026L107.08 54.671C114.001 34.2577 111.895 15.3232 119.53 8.98599C152.166 -18.1061 192.796 20.4755 211.867 65.9735C212.828 68.266 213.732 70.5724 214.579 72.8927C214.96 73.9291 215.327 74.9675 215.68 76.0079C216.609 78.7192 217.452 81.4374 218.209 84.1625C218.5 85.2019 218.777 86.2403 219.04 87.2777C219.322 88.3972 219.592 89.5138 219.841 90.6304C221.697 98.8058 222.705 106.868 222.705 114.492Z" fill="#F2F2F2"/>
<path d="M121.847 219.973C121.078 219.991 120.305 220 119.53 220C101.11 220 77.9411 209.939 56.9158 196.011C55.1763 194.859 53.4522 193.68 51.7437 192.474L53.2422 183.15L98.6062 176.991L121.374 194.794L121.847 219.973Z" fill="#2F2E41"/>
<path d="M124.031 53.4683H117.567C117.367 53.4684 117.175 53.5498 117.033 53.6946C116.891 53.8393 116.812 54.0357 116.812 54.2404V60.8538C116.812 60.955 116.831 61.0552 116.869 61.1487C116.907 61.2422 116.963 61.327 117.033 61.3985C117.103 61.4699 117.187 61.5265 117.278 61.565C117.37 61.6036 117.468 61.6232 117.567 61.623H124.031C124.231 61.623 124.423 61.5421 124.564 61.3979C124.706 61.2538 124.786 61.0581 124.786 60.8538V54.2404C124.786 54.0358 124.706 53.8398 124.564 53.6951C124.423 53.5504 124.231 53.4689 124.031 53.4683Z" fill="white"/>
<path d="M124.031 64.7381H117.567C117.367 64.7382 117.175 64.8196 117.033 64.9644C116.891 65.1091 116.812 65.3055 116.812 65.5102V72.1236C116.812 72.2248 116.831 72.3251 116.869 72.4185C116.907 72.512 116.963 72.5969 117.033 72.6683C117.103 72.7397 117.187 72.7963 117.278 72.8349C117.37 72.8734 117.468 72.893 117.567 72.8928H124.031C124.231 72.8928 124.423 72.8119 124.564 72.6678C124.706 72.5236 124.786 72.3279 124.786 72.1236V65.5102C124.786 65.3056 124.706 65.1096 124.564 64.9649C124.423 64.8202 124.231 64.7387 124.031 64.7381Z" fill="#E6E6E6"/>
<path d="M124.031 76.0079H117.567C117.367 76.008 117.175 76.0894 117.033 76.2342C116.891 76.379 116.812 76.5753 116.812 76.78V83.3905C116.812 83.4919 116.831 83.5924 116.869 83.6862C116.907 83.7799 116.962 83.8651 117.032 83.9368C117.103 84.0086 117.186 84.0654 117.278 84.1042C117.369 84.1429 117.468 84.1627 117.567 84.1625H124.031C124.231 84.1624 124.423 84.0811 124.565 83.9363C124.707 83.7915 124.786 83.5952 124.786 83.3905V76.78C124.786 76.5754 124.706 76.3794 124.564 76.2347C124.423 76.09 124.231 76.0085 124.031 76.0079Z" fill="#E6E6E6"/>
<path d="M124.775 87.9132C124.742 87.7354 124.65 87.5746 124.515 87.4586C124.379 87.3426 124.208 87.2786 124.031 87.2777H117.567C117.367 87.2778 117.175 87.3592 117.033 87.504C116.891 87.6487 116.812 87.8451 116.812 88.0498V94.6602C116.812 94.7617 116.831 94.8622 116.869 94.9559C116.907 95.0497 116.962 95.1349 117.032 95.2066C117.103 95.2784 117.186 95.3352 117.278 95.374C117.369 95.4127 117.468 95.4325 117.567 95.4323H124.031C124.231 95.4322 124.423 95.3509 124.565 95.2061C124.707 95.0613 124.786 94.865 124.786 94.6602V88.0498C124.787 88.004 124.783 87.9582 124.775 87.9132Z" fill="#E6E6E6"/>
<path d="M124.324 98.6069C124.231 98.5676 124.132 98.5474 124.031 98.5475H117.567C117.468 98.5473 117.369 98.5671 117.278 98.6059C117.186 98.6446 117.103 98.7015 117.032 98.7732C116.962 98.845 116.907 98.9302 116.869 99.0239C116.831 99.1177 116.812 99.2182 116.812 99.3196V105.93C116.811 106.032 116.831 106.132 116.868 106.226C116.906 106.32 116.962 106.405 117.032 106.477C117.102 106.549 117.185 106.606 117.277 106.644C117.369 106.683 117.467 106.703 117.567 106.702H124.031C124.231 106.702 124.423 106.621 124.565 106.476C124.707 106.331 124.786 106.135 124.786 105.93V99.3196C124.786 99.1677 124.742 99.0191 124.66 98.8925C124.578 98.7658 124.461 98.6665 124.324 98.6069Z" fill="#E6E6E6"/>
<path d="M137.61 53.4683H131.146C130.946 53.4684 130.754 53.5498 130.612 53.6946C130.471 53.8393 130.391 54.0357 130.391 54.2404V60.8538C130.391 60.955 130.411 61.0552 130.449 61.1487C130.487 61.2422 130.542 61.327 130.613 61.3985C130.683 61.4699 130.766 61.5265 130.857 61.565C130.949 61.6036 131.047 61.6232 131.146 61.623H137.61C137.81 61.623 138.002 61.5421 138.143 61.3979C138.285 61.2538 138.365 61.0581 138.366 60.8538V54.2404C138.365 54.0358 138.285 53.8398 138.144 53.6951C138.002 53.5504 137.811 53.4689 137.61 53.4683Z" fill="#E6E6E6"/>
<path d="M137.61 64.7381H131.146C130.946 64.7382 130.754 64.8196 130.612 64.9644C130.471 65.1091 130.391 65.3055 130.391 65.5102V72.1236C130.391 72.2248 130.411 72.3251 130.449 72.4185C130.487 72.512 130.542 72.5969 130.613 72.6683C130.683 72.7397 130.766 72.7963 130.857 72.8349C130.949 72.8734 131.047 72.893 131.146 72.8928H137.61C137.81 72.8928 138.002 72.8119 138.143 72.6678C138.285 72.5236 138.365 72.3279 138.366 72.1236V65.5102C138.365 65.3056 138.285 65.1096 138.144 64.9649C138.002 64.8202 137.811 64.7387 137.61 64.7381Z" fill="#608AF5"/>
<path d="M137.61 76.0079H131.146C130.946 76.008 130.754 76.0894 130.612 76.2342C130.471 76.379 130.391 76.5753 130.391 76.78V83.3905C130.391 83.4919 130.41 83.5924 130.448 83.6862C130.486 83.7799 130.542 83.8651 130.612 83.9368C130.682 84.0086 130.765 84.0654 130.857 84.1042C130.949 84.1429 131.047 84.1627 131.146 84.1625H137.61C137.811 84.1624 138.003 84.0811 138.144 83.9363C138.286 83.7915 138.365 83.5952 138.366 83.3905V76.78C138.365 76.5754 138.285 76.3794 138.144 76.2347C138.002 76.09 137.811 76.0085 137.61 76.0079Z" fill="#608AF5"/>
<path d="M137.61 87.2777H131.146C130.988 87.2778 130.834 87.329 130.705 87.4238C130.577 87.5187 130.481 87.6526 130.432 87.8063C130.405 87.8845 130.391 87.9669 130.391 88.0498V94.6602C130.391 94.7617 130.41 94.8622 130.448 94.9559C130.486 95.0497 130.542 95.1349 130.612 95.2066C130.682 95.2784 130.765 95.3352 130.857 95.374C130.949 95.4127 131.047 95.4325 131.146 95.4323H137.61C137.811 95.4322 138.003 95.3509 138.144 95.2061C138.286 95.0613 138.365 94.865 138.366 94.6602V88.0498C138.365 87.8452 138.285 87.6492 138.144 87.5045C138.002 87.3598 137.811 87.2783 137.61 87.2777Z" fill="#608AF5"/>
<path d="M137.61 98.5475H131.146C131.047 98.5473 130.949 98.5671 130.857 98.6059C130.765 98.6446 130.682 98.7015 130.612 98.7732C130.542 98.845 130.486 98.9302 130.448 99.0239C130.41 99.1177 130.391 99.2182 130.391 99.3196V105.93C130.391 106.031 130.41 106.132 130.448 106.226C130.486 106.32 130.542 106.405 130.612 106.476C130.682 106.548 130.765 106.605 130.857 106.644C130.949 106.683 131.047 106.702 131.146 106.702H137.61C137.811 106.702 138.003 106.621 138.144 106.476C138.286 106.331 138.365 106.135 138.366 105.93V99.3196C138.365 99.1149 138.286 98.9185 138.144 98.7738C138.003 98.629 137.811 98.5476 137.61 98.5475Z" fill="#E6E6E6"/>
<path d="M151.19 53.4683H144.725C144.525 53.4684 144.333 53.5498 144.192 53.6946C144.05 53.8393 143.97 54.0357 143.97 54.2404V60.8538C143.97 60.955 143.99 61.0552 144.028 61.1487C144.066 61.2422 144.122 61.327 144.192 61.3985C144.262 61.4699 144.345 61.5265 144.437 61.565C144.528 61.6036 144.626 61.6232 144.725 61.623H151.19C151.39 61.623 151.581 61.5421 151.723 61.3979C151.864 61.2538 151.944 61.0581 151.945 60.8538V54.2404C151.944 54.0358 151.864 53.8398 151.723 53.6951C151.582 53.5504 151.39 53.4689 151.19 53.4683Z" fill="#608AF5"/>
<path d="M151.19 64.7381H144.725C144.525 64.7382 144.333 64.8196 144.192 64.9644C144.05 65.1091 143.97 65.3055 143.97 65.5102V72.1236C143.97 72.2248 143.99 72.3251 144.028 72.4185C144.066 72.512 144.122 72.5969 144.192 72.6683C144.262 72.7397 144.345 72.7963 144.437 72.8349C144.528 72.8734 144.626 72.893 144.725 72.8928H151.19C151.39 72.8928 151.581 72.8119 151.723 72.6678C151.864 72.5236 151.944 72.3279 151.945 72.1236V65.5102C151.944 65.3056 151.865 65.1096 151.723 64.9649C151.582 64.8202 151.39 64.7387 151.19 64.7381Z" fill="#608AF5"/>
<path d="M151.19 76.0079H144.725C144.525 76.008 144.333 76.0894 144.192 76.2342C144.05 76.379 143.97 76.5753 143.97 76.78V83.3905C143.97 83.4919 143.99 83.5924 144.027 83.6862C144.065 83.7799 144.121 83.8651 144.191 83.9368C144.261 84.0086 144.345 84.0654 144.436 84.1042C144.528 84.1429 144.626 84.1627 144.725 84.1625H151.19C151.39 84.1624 151.582 84.0811 151.724 83.9363C151.865 83.7915 151.945 83.5952 151.945 83.3905V76.78C151.944 76.5754 151.865 76.3794 151.723 76.2347C151.582 76.09 151.39 76.0085 151.19 76.0079Z" fill="#E6E6E6"/>
<path d="M151.19 87.2777H144.725C144.525 87.2778 144.333 87.3592 144.192 87.504C144.05 87.6487 143.97 87.8451 143.97 88.0498V94.6602C143.97 94.7617 143.99 94.8622 144.027 94.9559C144.065 95.0497 144.121 95.1349 144.191 95.2066C144.261 95.2784 144.345 95.3352 144.436 95.374C144.528 95.4127 144.626 95.4325 144.725 95.4323H151.19C151.39 95.4322 151.582 95.3509 151.724 95.2061C151.865 95.0613 151.945 94.865 151.945 94.6602V88.0498C151.944 87.8452 151.865 87.6492 151.723 87.5045C151.582 87.3598 151.39 87.2783 151.19 87.2777Z" fill="#608AF5"/>
<path d="M151.19 98.5475H144.725C144.626 98.5473 144.528 98.5671 144.436 98.6059C144.345 98.6446 144.261 98.7015 144.191 98.7732C144.121 98.845 144.065 98.9302 144.027 99.0239C143.99 99.1177 143.97 99.2182 143.97 99.3196V105.93C143.97 106.031 143.99 106.132 144.027 106.226C144.065 106.32 144.121 106.405 144.191 106.476C144.261 106.548 144.345 106.605 144.436 106.644C144.528 106.683 144.626 106.702 144.725 106.702H151.19C151.39 106.702 151.582 106.621 151.724 106.476C151.865 106.331 151.945 106.135 151.945 105.93V99.3196C151.945 99.1149 151.865 98.9185 151.724 98.7738C151.582 98.629 151.39 98.5476 151.19 98.5475Z" fill="#608AF5"/>
<path d="M164.769 53.4683H158.305C158.104 53.4684 157.912 53.5498 157.771 53.6946C157.629 53.8393 157.55 54.0356 157.55 54.2404V60.8538C157.55 60.955 157.569 61.0552 157.607 61.1487C157.645 61.2422 157.701 61.327 157.771 61.3985C157.841 61.4699 157.925 61.5265 158.016 61.565C158.108 61.6036 158.206 61.6232 158.305 61.623H164.769C164.969 61.623 165.161 61.5421 165.302 61.3979C165.444 61.2538 165.523 61.0581 165.524 60.8538V54.2404C165.524 54.0358 165.444 53.8398 165.302 53.6951C165.161 53.5504 164.969 53.4689 164.769 53.4683Z" fill="#608AF5"/>
<path d="M164.769 64.7381H158.305C158.104 64.7382 157.912 64.8196 157.771 64.9644C157.629 65.1091 157.55 65.3055 157.55 65.5102V72.1236C157.55 72.2248 157.569 72.3251 157.607 72.4185C157.645 72.512 157.701 72.5969 157.771 72.6683C157.841 72.7397 157.925 72.7963 158.016 72.8349C158.108 72.8734 158.206 72.893 158.305 72.8928H164.769C164.969 72.8928 165.161 72.8119 165.302 72.6678C165.444 72.5236 165.523 72.3279 165.524 72.1236V65.5102C165.524 65.3056 165.444 65.1096 165.302 64.9649C165.161 64.8202 164.969 64.7387 164.769 64.7381Z" fill="white"/>
<path d="M164.769 76.0079H158.305C158.104 76.008 157.912 76.0894 157.771 76.2342C157.629 76.379 157.55 76.5753 157.55 76.78V83.3905C157.549 83.4919 157.569 83.5924 157.607 83.6862C157.645 83.7799 157.7 83.8651 157.77 83.9368C157.84 84.0086 157.924 84.0654 158.015 84.1042C158.107 84.1429 158.205 84.1627 158.305 84.1625H164.769C164.969 84.1624 165.161 84.0811 165.303 83.9363C165.444 83.7915 165.524 83.5952 165.524 83.3905V76.78C165.524 76.5754 165.444 76.3794 165.302 76.2347C165.161 76.09 164.969 76.0085 164.769 76.0079Z" fill="white"/>
<path d="M164.769 87.2777H158.305C158.104 87.2778 157.912 87.3592 157.771 87.504C157.629 87.6487 157.55 87.8451 157.55 88.0498V94.6602C157.549 94.7617 157.569 94.8622 157.607 94.9559C157.645 95.0497 157.7 95.1349 157.77 95.2066C157.84 95.2784 157.924 95.3352 158.015 95.374C158.107 95.4127 158.205 95.4325 158.305 95.4323H164.769C164.969 95.4322 165.161 95.3509 165.303 95.2061C165.444 95.0613 165.524 94.865 165.524 94.6602V88.0498C165.524 87.8452 165.444 87.6492 165.302 87.5045C165.161 87.3598 164.969 87.2783 164.769 87.2777Z" fill="#E6E6E6"/>
<path d="M164.769 98.5475H158.305C158.205 98.5473 158.107 98.5672 158.015 98.6059C157.924 98.6446 157.84 98.7015 157.77 98.7732C157.7 98.8449 157.645 98.9301 157.607 99.0239C157.569 99.1177 157.549 99.2182 157.55 99.3196V105.93C157.549 106.031 157.569 106.132 157.607 106.226C157.645 106.32 157.7 106.405 157.77 106.476C157.84 106.548 157.924 106.605 158.015 106.644C158.107 106.683 158.205 106.702 158.305 106.702H164.769C164.969 106.702 165.161 106.621 165.303 106.476C165.444 106.331 165.524 106.135 165.524 105.93V99.3196C165.524 99.1149 165.444 98.9185 165.303 98.7738C165.161 98.629 164.969 98.5476 164.769 98.5475Z" fill="#608AF5"/>
<path d="M178.348 53.4683H171.881C171.681 53.469 171.49 53.5507 171.349 53.6954C171.208 53.8401 171.129 54.0361 171.129 54.2404V60.8538C171.129 61.0578 171.208 61.2534 171.349 61.3976C171.49 61.5419 171.682 61.6229 171.881 61.623H178.348C178.548 61.623 178.74 61.5421 178.881 61.3979C179.023 61.2538 179.103 61.0581 179.103 60.8538V54.2404C179.103 54.0358 179.023 53.8398 178.882 53.6951C178.74 53.5504 178.548 53.4689 178.348 53.4683Z" fill="white"/>
<path d="M178.348 64.7381H171.881C171.681 64.7388 171.49 64.8205 171.349 64.9652C171.208 65.11 171.129 65.3059 171.129 65.5102V72.1236C171.129 72.3276 171.208 72.5232 171.349 72.6674C171.49 72.8117 171.682 72.8927 171.881 72.8928H178.348C178.548 72.8928 178.74 72.8119 178.881 72.6678C179.023 72.5236 179.103 72.3279 179.103 72.1236V65.5102C179.103 65.3056 179.023 65.1096 178.882 64.9649C178.74 64.8202 178.548 64.7387 178.348 64.7381Z" fill="white"/>
<path d="M178.348 76.0079H171.881C171.681 76.0086 171.49 76.0903 171.349 76.235C171.208 76.3798 171.129 76.5758 171.129 76.78V83.3905C171.129 83.4917 171.148 83.592 171.186 83.6856C171.223 83.7792 171.279 83.8643 171.348 83.936C171.418 84.0077 171.501 84.0646 171.593 84.1035C171.684 84.1424 171.782 84.1624 171.881 84.1625H178.348C178.549 84.1624 178.741 84.0811 178.882 83.9363C179.024 83.7915 179.103 83.5952 179.103 83.3905V76.78C179.103 76.5754 179.023 76.3794 178.882 76.2347C178.74 76.09 178.548 76.0085 178.348 76.0079Z" fill="white"/>
<path d="M178.348 87.2777H171.881C171.681 87.2784 171.49 87.3601 171.349 87.5048C171.208 87.6496 171.129 87.8455 171.129 88.0498V94.6602C171.129 94.7615 171.148 94.8618 171.186 94.9554C171.223 95.049 171.279 95.1341 171.348 95.2058C171.418 95.2775 171.501 95.3344 171.593 95.3733C171.684 95.4122 171.782 95.4323 171.881 95.4324H178.348C178.549 95.4323 178.741 95.3509 178.882 95.2061C179.024 95.0613 179.103 94.865 179.103 94.6602V88.0498C179.103 87.8452 179.023 87.6492 178.882 87.5045C178.74 87.3598 178.548 87.2783 178.348 87.2777Z" fill="#608AF5"/>
<path d="M178.348 98.5475H171.881C171.782 98.5476 171.684 98.5677 171.593 98.6066C171.501 98.6454 171.418 98.7024 171.348 98.7741C171.279 98.8458 171.223 98.9309 171.186 99.0245C171.148 99.1181 171.129 99.2184 171.129 99.3196V105.93C171.129 106.031 171.148 106.132 171.186 106.225C171.223 106.319 171.279 106.404 171.348 106.476C171.418 106.547 171.501 106.604 171.593 106.643C171.684 106.682 171.782 106.702 171.881 106.702H178.348C178.549 106.702 178.741 106.621 178.882 106.476C179.024 106.331 179.103 106.135 179.103 105.93V99.3196C179.103 99.1149 179.024 98.9185 178.882 98.7738C178.741 98.629 178.549 98.5476 178.348 98.5475Z" fill="#E6E6E6"/>
<path d="M191.928 53.4683H185.46C185.261 53.469 185.069 53.5507 184.928 53.6954C184.787 53.8401 184.708 54.0361 184.708 54.2404V60.8538C184.708 61.0578 184.788 61.2534 184.929 61.3976C185.07 61.5419 185.261 61.6229 185.46 61.623H191.928C192.127 61.623 192.319 61.5421 192.461 61.3979C192.602 61.2538 192.682 61.0581 192.683 60.8538V54.2404C192.682 54.0358 192.602 53.8398 192.461 53.6951C192.319 53.5504 192.128 53.4689 191.928 53.4683Z" fill="white"/>
<path d="M191.928 64.7381H185.46C185.261 64.7388 185.069 64.8205 184.928 64.9652C184.787 65.11 184.708 65.3059 184.708 65.5102V72.1236C184.708 72.3276 184.788 72.5232 184.929 72.6674C185.07 72.8117 185.261 72.8927 185.46 72.8928H191.928C192.127 72.8928 192.319 72.8119 192.461 72.6677C192.602 72.5236 192.682 72.3279 192.683 72.1236V65.5102C192.682 65.3056 192.602 65.1096 192.461 64.9649C192.319 64.8202 192.128 64.7387 191.928 64.7381Z" fill="white"/>
<path d="M191.928 76.0079H185.46C185.261 76.0086 185.069 76.0903 184.928 76.235C184.787 76.3798 184.708 76.5758 184.708 76.78V83.3905C184.708 83.4917 184.727 83.592 184.765 83.6856C184.803 83.7792 184.858 83.8643 184.928 83.936C184.998 84.0077 185.081 84.0646 185.172 84.1035C185.263 84.1424 185.361 84.1624 185.46 84.1625H191.928C192.128 84.1624 192.32 84.0811 192.461 83.9363C192.603 83.7915 192.683 83.5952 192.683 83.3905V76.78C192.682 76.5754 192.602 76.3794 192.461 76.2347C192.319 76.0901 192.128 76.0085 191.928 76.0079Z" fill="#608AF5"/>
<path d="M191.928 87.2777H185.46C185.261 87.2784 185.069 87.3601 184.928 87.5048C184.787 87.6496 184.708 87.8455 184.708 88.0498V94.6602C184.708 94.7615 184.727 94.8618 184.765 94.9554C184.803 95.049 184.858 95.1341 184.928 95.2058C184.998 95.2775 185.081 95.3344 185.172 95.3733C185.263 95.4122 185.361 95.4323 185.46 95.4324H191.928C192.128 95.4323 192.32 95.3509 192.462 95.2061C192.603 95.0613 192.683 94.865 192.683 94.6602V88.0498C192.682 87.8452 192.602 87.6492 192.461 87.5045C192.319 87.3598 192.128 87.2783 191.928 87.2777Z" fill="#E6E6E6"/>
<path d="M191.928 98.5475H185.46C185.361 98.5476 185.263 98.5677 185.172 98.6066C185.081 98.6454 184.998 98.7024 184.928 98.7741C184.858 98.8458 184.803 98.9309 184.765 99.0245C184.727 99.1181 184.708 99.2184 184.708 99.3196V105.93C184.708 106.031 184.727 106.132 184.765 106.225C184.803 106.319 184.858 106.404 184.928 106.476C184.998 106.547 185.081 106.604 185.172 106.643C185.263 106.682 185.361 106.702 185.46 106.702H191.928C192.128 106.702 192.32 106.621 192.462 106.476C192.603 106.331 192.683 106.135 192.683 105.93V99.3196C192.683 99.1149 192.603 98.9185 192.462 98.7738C192.32 98.629 192.128 98.5476 191.928 98.5475Z" fill="white"/>
<path d="M205.507 53.4683H199.04C198.84 53.469 198.649 53.5507 198.508 53.6954C198.367 53.8401 198.287 54.0361 198.288 54.2404V60.8538C198.288 61.0578 198.367 61.2534 198.508 61.3976C198.649 61.5419 198.84 61.6229 199.04 61.623H205.507C205.707 61.623 205.898 61.5421 206.04 61.3979C206.181 61.2538 206.261 61.0581 206.262 60.8538V54.2404C206.261 54.0358 206.182 53.8398 206.04 53.6951C205.899 53.5504 205.707 53.4689 205.507 53.4683Z" fill="#608AF5"/>
<path d="M205.507 64.7381H199.04C198.84 64.7388 198.649 64.8205 198.508 64.9652C198.367 65.11 198.287 65.3059 198.288 65.5102V72.1236C198.288 72.3276 198.367 72.5232 198.508 72.6674C198.649 72.8117 198.84 72.8927 199.04 72.8928H205.507C205.707 72.8928 205.898 72.8119 206.04 72.6677C206.181 72.5236 206.261 72.3279 206.262 72.1236V65.5102C206.261 65.3056 206.182 65.1096 206.04 64.9649C205.899 64.8202 205.707 64.7387 205.507 64.7381Z" fill="#608AF5"/>
<path d="M205.507 76.0079H199.04C198.84 76.0086 198.649 76.0903 198.508 76.235C198.367 76.3798 198.287 76.5758 198.288 76.78V83.3905C198.287 83.4917 198.307 83.592 198.344 83.6856C198.382 83.7792 198.437 83.8643 198.507 83.936C198.577 84.0077 198.66 84.0646 198.751 84.1035C198.843 84.1424 198.941 84.1624 199.04 84.1625H205.507C205.707 84.1624 205.899 84.0811 206.041 83.9363C206.182 83.7915 206.262 83.5952 206.262 83.3905V76.78C206.261 76.5754 206.182 76.3794 206.04 76.2347C205.899 76.0901 205.707 76.0085 205.507 76.0079Z" fill="#E6E6E6"/>
<path d="M205.507 87.2777H199.04C198.84 87.2784 198.649 87.3601 198.508 87.5048C198.367 87.6496 198.287 87.8455 198.288 88.0498V94.6602C198.287 94.7615 198.307 94.8618 198.344 94.9554C198.382 95.049 198.437 95.1341 198.507 95.2058C198.577 95.2775 198.66 95.3344 198.751 95.3733C198.843 95.4122 198.941 95.4323 199.04 95.4324H205.507C205.707 95.4323 205.899 95.3509 206.041 95.2061C206.182 95.0613 206.262 94.865 206.262 94.6602V88.0498C206.261 87.8452 206.182 87.6492 206.04 87.5045C205.899 87.3598 205.707 87.2783 205.507 87.2777Z" fill="white"/>
<path d="M205.507 98.5475H199.04C198.941 98.5476 198.843 98.5677 198.751 98.6066C198.66 98.6454 198.577 98.7024 198.507 98.7741C198.437 98.8458 198.382 98.9309 198.344 99.0245C198.307 99.1181 198.287 99.2184 198.288 99.3196V105.93C198.287 106.031 198.307 106.132 198.344 106.225C198.382 106.319 198.437 106.404 198.507 106.476C198.577 106.547 198.66 106.604 198.751 106.643C198.843 106.682 198.941 106.702 199.04 106.702H205.507C205.707 106.702 205.899 106.621 206.041 106.476C206.182 106.331 206.262 106.135 206.262 105.93V99.3196C206.262 99.1149 206.182 98.9185 206.041 98.7738C205.899 98.629 205.707 98.5476 205.507 98.5475Z" fill="#608AF5"/>
<path d="M219.086 53.4683H212.619C212.419 53.469 212.228 53.5507 212.087 53.6954C211.946 53.8401 211.867 54.0361 211.867 54.2404V60.8538C211.867 61.0578 211.946 61.2534 212.087 61.3976C212.228 61.5419 212.42 61.6229 212.619 61.623H219.086C219.286 61.623 219.478 61.5421 219.619 61.3979C219.761 61.2538 219.841 61.0581 219.841 60.8538V54.2404C219.841 54.0358 219.761 53.8398 219.62 53.6951C219.478 53.5504 219.286 53.4689 219.086 53.4683Z" fill="#608AF5"/>
<path d="M219.086 64.7381H212.619C212.419 64.7388 212.228 64.8205 212.087 64.9652C211.946 65.11 211.867 65.3059 211.867 65.5102V72.1236C211.867 72.3276 211.946 72.5232 212.087 72.6674C212.228 72.8117 212.42 72.8927 212.619 72.8928H219.086C219.286 72.8928 219.478 72.8119 219.619 72.6677C219.761 72.5236 219.841 72.3279 219.841 72.1236V65.5102C219.841 65.3056 219.761 65.1096 219.62 64.9649C219.478 64.8202 219.286 64.7387 219.086 64.7381Z" fill="#608AF5"/>
<path d="M219.086 76.0079H212.619C212.419 76.0086 212.228 76.0903 212.087 76.235C211.946 76.3798 211.867 76.5758 211.867 76.78V83.3905C211.867 83.4917 211.886 83.592 211.923 83.6856C211.961 83.7792 212.016 83.8643 212.086 83.936C212.156 84.0077 212.239 84.0646 212.331 84.1035C212.422 84.1424 212.52 84.1624 212.619 84.1625H219.086C219.287 84.1624 219.479 84.0811 219.62 83.9363C219.762 83.7915 219.841 83.5952 219.841 83.3905V76.78C219.841 76.5754 219.761 76.3794 219.62 76.2347C219.478 76.09 219.286 76.0085 219.086 76.0079Z" fill="#E6E6E6"/>
<path d="M219.086 87.2777H212.619C212.419 87.2784 212.228 87.3601 212.087 87.5048C211.946 87.6496 211.867 87.8455 211.867 88.0498V94.6602C211.867 94.7615 211.886 94.8618 211.923 94.9554C211.961 95.049 212.016 95.1341 212.086 95.2058C212.156 95.2775 212.239 95.3344 212.331 95.3733C212.422 95.4122 212.52 95.4323 212.619 95.4324H219.086C219.287 95.4323 219.479 95.3509 219.62 95.2061C219.762 95.0613 219.841 94.865 219.841 94.6602V88.0498C219.841 87.8452 219.761 87.6492 219.62 87.5045C219.478 87.3598 219.286 87.2783 219.086 87.2777Z" fill="#608AF5"/>
<path d="M219.086 98.5475H212.619C212.52 98.5476 212.422 98.5677 212.331 98.6066C212.239 98.6454 212.156 98.7024 212.086 98.7741C212.016 98.8458 211.961 98.9309 211.923 99.0245C211.886 99.1181 211.867 99.2184 211.867 99.3196V105.93C211.867 106.031 211.886 106.132 211.923 106.225C211.961 106.319 212.016 106.404 212.086 106.476C212.156 106.547 212.239 106.604 212.331 106.643C212.422 106.682 212.52 106.702 212.619 106.702H219.086C219.287 106.702 219.479 106.621 219.62 106.476C219.762 106.331 219.841 106.135 219.841 105.93V99.3196C219.841 99.1149 219.762 98.9185 219.62 98.7738C219.479 98.629 219.287 98.5476 219.086 98.5475Z" fill="#608AF5"/>
<path d="M232.666 53.4683H226.198C225.999 53.469 225.807 53.5507 225.666 53.6954C225.525 53.8401 225.446 54.0361 225.446 54.2404V60.8538C225.446 61.0578 225.525 61.2534 225.667 61.3976C225.808 61.5419 225.999 61.6229 226.198 61.623H232.666C232.865 61.623 233.057 61.5421 233.199 61.3979C233.34 61.2538 233.42 61.0581 233.421 60.8538V54.2404C233.42 54.0358 233.34 53.8398 233.199 53.6951C233.057 53.5504 232.866 53.4689 232.666 53.4683Z" fill="#E6E6E6"/>
<path d="M232.666 64.7381H226.198C225.999 64.7388 225.807 64.8205 225.666 64.9652C225.525 65.11 225.446 65.3059 225.446 65.5102V72.1236C225.446 72.3276 225.525 72.5232 225.667 72.6674C225.808 72.8117 225.999 72.8927 226.198 72.8928H232.666C232.865 72.8928 233.057 72.8119 233.199 72.6677C233.34 72.5236 233.42 72.3279 233.421 72.1236V65.5102C233.42 65.3056 233.34 65.1096 233.199 64.9649C233.057 64.8202 232.866 64.7387 232.666 64.7381Z" fill="#608AF5"/>
<path d="M232.666 76.0079H226.198C225.999 76.0086 225.807 76.0903 225.666 76.235C225.525 76.3798 225.446 76.5758 225.446 76.78V83.3905C225.446 83.4917 225.465 83.592 225.503 83.6856C225.54 83.7792 225.596 83.8643 225.666 83.936C225.736 84.0077 225.819 84.0646 225.91 84.1035C226.001 84.1424 226.099 84.1624 226.198 84.1625H232.666C232.866 84.1624 233.058 84.0811 233.199 83.9363C233.341 83.7915 233.421 83.5952 233.421 83.3905V76.78C233.42 76.5754 233.34 76.3794 233.199 76.2347C233.057 76.09 232.866 76.0085 232.666 76.0079Z" fill="#608AF5"/>
<path d="M232.666 87.2777H226.198C225.999 87.2784 225.807 87.3601 225.666 87.5048C225.525 87.6496 225.446 87.8455 225.446 88.0498V94.6602C225.446 94.7615 225.465 94.8618 225.503 94.9554C225.54 95.049 225.596 95.1341 225.666 95.2058C225.736 95.2775 225.819 95.3344 225.91 95.3733C226.001 95.4122 226.099 95.4323 226.198 95.4324H232.666C232.866 95.4323 233.058 95.3509 233.199 95.2061C233.341 95.0613 233.421 94.865 233.421 94.6602V88.0498C233.42 87.8452 233.34 87.6492 233.199 87.5045C233.057 87.3598 232.866 87.2783 232.666 87.2777Z" fill="#608AF5"/>
<path d="M232.666 98.5475H226.198C226.099 98.5476 226.001 98.5677 225.91 98.6066C225.819 98.6454 225.736 98.7024 225.666 98.7741C225.596 98.8458 225.54 98.9309 225.503 99.0245C225.465 99.1181 225.446 99.2184 225.446 99.3196V105.93C225.446 106.031 225.465 106.132 225.503 106.225C225.54 106.319 225.596 106.404 225.666 106.476C225.736 106.547 225.819 106.604 225.91 106.643C226.001 106.682 226.099 106.702 226.198 106.702H232.666C232.866 106.702 233.058 106.621 233.199 106.476C233.341 106.331 233.421 106.135 233.421 105.93V99.3196C233.421 99.1149 233.341 98.9185 233.199 98.7738C233.058 98.629 232.866 98.5476 232.666 98.5475Z" fill="#E6E6E6"/>
<path d="M246.245 53.4683H239.778C239.578 53.469 239.387 53.5507 239.246 53.6954C239.105 53.8401 239.025 54.0361 239.025 54.2404V60.8538C239.025 61.0578 239.105 61.2534 239.246 61.3976C239.387 61.5419 239.578 61.6229 239.778 61.623H246.245C246.445 61.623 246.636 61.5421 246.778 61.3979C246.919 61.2538 246.999 61.0581 247 60.8538V54.2404C246.999 54.0358 246.92 53.8398 246.778 53.6951C246.637 53.5504 246.445 53.4689 246.245 53.4683Z" fill="#E6E6E6"/>
<path d="M246.245 64.7381H239.778C239.578 64.7388 239.386 64.8205 239.246 64.9652C239.105 65.11 239.025 65.3059 239.025 65.5102V72.1236C239.025 72.3276 239.105 72.5232 239.246 72.6674C239.387 72.8117 239.578 72.8927 239.778 72.8928H246.245C246.445 72.8928 246.636 72.8119 246.778 72.6677C246.919 72.5236 246.999 72.3279 247 72.1236V65.5102C246.999 65.3056 246.92 65.1096 246.778 64.9649C246.637 64.8202 246.445 64.7387 246.245 64.7381Z" fill="#E6E6E6"/>
<path d="M246.245 76.0079H239.778C239.578 76.0086 239.386 76.0903 239.246 76.235C239.105 76.3798 239.025 76.5758 239.025 76.78V83.3905C239.025 83.4917 239.044 83.592 239.082 83.6856C239.12 83.7792 239.175 83.8643 239.245 83.936C239.315 84.0077 239.398 84.0646 239.489 84.1035C239.581 84.1424 239.679 84.1624 239.778 84.1625H246.245C246.445 84.1624 246.637 84.0811 246.779 83.9363C246.92 83.7915 247 83.5952 247 83.3905V76.78C246.999 76.5754 246.92 76.3794 246.778 76.2347C246.637 76.09 246.445 76.0085 246.245 76.0079Z" fill="#608AF5"/>
<path d="M246.245 87.2777H239.778C239.578 87.2784 239.387 87.3601 239.246 87.5048C239.105 87.6496 239.025 87.8455 239.025 88.0498V94.6602C239.025 94.7615 239.044 94.8618 239.082 94.9554C239.12 95.049 239.175 95.1341 239.245 95.2058C239.315 95.2775 239.398 95.3344 239.489 95.3733C239.581 95.4122 239.679 95.4323 239.778 95.4324H246.245C246.445 95.4323 246.637 95.3509 246.779 95.2061C246.92 95.0613 247 94.865 247 94.6602V88.0498C246.999 87.8452 246.92 87.6492 246.778 87.5045C246.637 87.3598 246.445 87.2783 246.245 87.2777Z" fill="#E6E6E6"/>
<path d="M246.245 98.5475H239.778C239.679 98.5476 239.581 98.5677 239.489 98.6066C239.398 98.6454 239.315 98.7024 239.245 98.7741C239.175 98.8458 239.12 98.9309 239.082 99.0245C239.044 99.1181 239.025 99.2184 239.025 99.3196V105.93C239.025 106.031 239.044 106.132 239.082 106.225C239.12 106.319 239.175 106.404 239.245 106.476C239.315 106.547 239.398 106.604 239.489 106.643C239.581 106.682 239.679 106.702 239.778 106.702H246.245C246.445 106.702 246.637 106.621 246.779 106.476C246.92 106.331 247 106.135 247 105.93V99.3196C247 99.1149 246.92 98.9185 246.779 98.7738C246.637 98.629 246.445 98.5476 246.245 98.5475Z" fill="#E6E6E6"/>
<path d="M97.6035 196.011H97.4234L97.5773 195.991L97.6035 196.011Z" fill="#2F2E41"/>
<path d="M82.1306 72.7725C93.0884 72.7725 101.972 63.6887 101.972 52.4833C101.972 41.278 93.0884 32.1942 82.1306 32.1942C71.1727 32.1942 62.2896 41.278 62.2896 52.4833C62.2896 63.6887 71.1727 72.7725 82.1306 72.7725Z" fill="#FFB6B6"/>
<path d="M99.5059 37.6077C99.5059 37.6077 104.695 27.4631 93.2785 26.5409C93.2785 26.5409 83.5456 17.5125 73.6252 24.8903C73.6252 24.8903 68.214 24.8903 65.255 31.152C65.255 31.152 60.9991 29.5015 60.0638 33.9187C60.0638 33.9187 56.9497 43.1411 60.0638 51.4412C63.178 59.7413 64.2124 60.6635 64.2124 60.6635C64.2124 60.6635 59.0952 43.2619 71.5509 42.3397C84.0065 41.4174 97.9448 33.4576 98.9828 43.6022C100.021 53.7467 101.583 56.2463 101.583 56.2463C101.583 56.2463 111.442 41.7578 99.5059 37.6077Z" fill="#2F2E41"/>
<path d="M133.455 102.485L133.391 102.83L132.674 106.702L127.716 133.488L127.423 135.065L126.807 138.4L125.965 142.95L124.098 153.032L123.564 155.921L123.363 157.005L123.294 157.385L122.739 160.375L122.57 161.278L121.217 171.532L120.035 180.468L123.99 184.513L121.632 186.924L120.085 195.99L120.087 196.011H56.9158C54.3602 194.318 51.8414 192.573 49.3595 190.776L49.8793 186.796C49.8793 186.796 51.6682 179.69 50.916 178.841C50.1668 177.991 48.5231 176.474 48.5231 176.474L50.5937 171.532L50.8812 170.846L50.3991 160.622L50.3875 160.375L50.2278 157.005L50.2074 156.571L50.1755 155.921L49.5627 142.95L49.5511 142.736L49.3653 138.804L49.191 135.065L49.1155 133.488L48.3692 117.711L47.8639 106.996L47.4225 97.6685L49.1969 97.0538L68.1748 90.4582L76.036 80.008L92.3974 80.1327L100.407 80.1951L113.771 92.8695L116.812 94.3543L116.835 94.3662L119.016 95.4323L124.545 98.1317L130.391 100.989L133.391 102.453L133.455 102.485Z" fill="#CACACA"/>
<path d="M78.1504 165.573C76.9514 166.048 75.6652 166.248 74.3823 166.16C73.0994 166.071 71.8511 165.697 70.7252 165.062C69.5993 164.426 68.6233 163.547 67.8659 162.484C67.1085 161.422 66.5881 160.202 66.3414 158.912L35.3963 154.422L46.1537 141.979L73.8905 148.15C76.0379 147.87 78.2112 148.405 79.9985 149.654C81.7859 150.903 83.0631 152.779 83.5882 154.927C84.1133 157.074 83.8498 159.344 82.8475 161.306C81.8453 163.268 80.174 164.786 78.1504 165.573V165.573Z" fill="#FFB6B6"/>
<path d="M64.353 142.95C63.7798 142.206 62.9683 141.694 62.0617 141.503L49.3653 138.804L48.0613 138.528C47.3036 138.366 46.5877 138.043 45.9607 137.578C45.3336 137.114 44.8095 136.52 44.4226 135.834C44.0212 135.115 43.7784 134.314 43.7111 133.488C43.6505 132.738 43.7384 131.982 43.9695 131.267L48.3692 117.711L51.2238 108.915C51.5698 107.854 51.774 106.75 51.8308 105.633C51.9898 102.543 51.0547 99.4968 49.1968 97.0538C47.5634 94.9065 45.2978 93.3534 42.7349 92.624C40.1719 91.8946 37.4475 92.0275 34.9641 93.0032C34.8915 93.0299 34.816 93.0596 34.7434 93.0893C32.9624 93.8165 31.3712 94.9573 30.0956 96.4215C28.8199 97.8857 27.8948 99.6333 27.3932 101.526L24.2917 113.063L17.8941 136.847C17.2537 139.23 17.1243 141.726 17.5148 144.165C17.9053 146.604 18.8065 148.928 20.1567 150.977C21.5069 153.027 23.2743 154.754 25.3377 156.04C27.4012 157.327 29.7121 158.142 32.1123 158.43L50.3991 160.622L58.8614 161.638C59.84 161.758 60.8269 161.497 61.6256 160.906C62.4243 160.316 62.9761 159.439 63.1711 158.451C63.1847 158.397 63.1954 158.343 63.203 158.288L63.4063 157.005L65.1284 146.201L65.1458 146.091C65.2355 145.54 65.2113 144.976 65.0748 144.435C64.9382 143.894 64.6924 143.388 64.353 142.95Z" fill="#CACACA"/>
<path d="M97.8612 165.919C99.1137 166.216 100.415 166.229 101.673 165.957C102.93 165.684 104.115 165.133 105.142 164.342C106.169 163.551 107.014 162.539 107.617 161.378C108.22 160.217 108.567 158.935 108.634 157.622L138.65 148.715L126.285 137.947L99.6759 148.056C97.5113 148.088 95.4335 148.932 93.8363 150.426C92.239 151.92 91.2332 153.961 91.0095 156.163C90.7858 158.365 91.3598 160.575 92.6226 162.373C93.8854 164.171 95.7494 165.432 97.8612 165.919V165.919Z" fill="#FFB6B6"/>
<path d="M153.554 128.79L139.277 95.1918C138.11 92.4334 136.024 90.1871 133.391 88.8516C132.577 88.4418 131.722 88.1232 130.841 87.9013C130.705 87.8657 130.568 87.833 130.432 87.8063C128.564 87.3895 126.626 87.4261 124.775 87.9132C123.082 88.3579 121.5 89.1624 120.132 90.2743C118.764 91.3862 117.641 92.7805 116.835 94.3663C116.826 94.3794 116.818 94.3933 116.812 94.4078C115.912 96.188 115.433 98.1594 115.415 100.163C115.396 102.167 115.838 104.147 116.704 105.945L116.881 106.307L126.97 127.026C127.315 127.735 127.509 128.51 127.54 129.301C127.571 130.091 127.438 130.879 127.15 131.614C126.862 132.348 126.425 133.012 125.869 133.562C125.312 134.112 124.649 134.535 123.921 134.804L123.212 135.065L110.469 139.772C109.513 140.121 108.727 140.836 108.275 141.766C107.824 142.696 107.743 143.768 108.05 144.758L108.082 144.862L111.654 156.551C111.672 156.604 111.689 156.658 111.709 156.711C111.741 156.812 111.779 156.91 111.825 157.005C112.205 157.876 112.876 158.579 113.718 158.989C114.559 159.399 115.516 159.488 116.417 159.241L123.293 157.385L124.696 157.005L142.454 152.209C144.791 151.578 146.967 150.437 148.832 148.866C150.698 147.295 152.209 145.33 153.264 143.106C154.318 140.882 154.889 138.452 154.939 135.981C154.989 133.51 154.517 131.057 153.554 128.79L153.554 128.79Z" fill="#CACACA"/>
<path d="M13.0386 157.005C17.1537 162.138 21.5918 166.99 26.3246 171.532H157.579C158.843 171.534 160.055 172.049 160.949 172.964C161.843 173.879 162.346 175.118 162.347 176.412L162.536 210.423C170.61 206.629 178.172 201.785 185.033 196.011C186.939 194.411 188.785 192.741 190.571 191.001C191.742 189.867 192.884 188.705 193.998 187.515C202.351 178.617 209.116 168.29 213.984 157.005H13.0386Z" fill="#3F3D56"/>
<path d="M193.998 187.515C192.886 188.706 191.744 189.868 190.572 191.001H162.632V187.515H193.998Z" fill="white"/>
<path d="M133.193 76.0079C133.055 75.7474 132.851 75.5299 132.602 75.3783C132.353 75.2267 132.069 75.1467 131.779 75.1467H36.573C36.1461 75.1479 35.7371 75.322 35.4355 75.6309C35.134 75.9398 34.9645 76.3584 34.9641 76.7949V135.065H133.391V76.7949C133.392 76.5195 133.324 76.2485 133.193 76.0079Z" fill="#3F3D56"/>
<path d="M34.8779 133.488V140.678C34.8779 140.976 34.9353 141.272 35.0469 141.547C35.1584 141.822 35.3219 142.073 35.5281 142.283C35.7342 142.494 35.9789 142.661 36.2482 142.775C36.5175 142.89 36.8062 142.948 37.0977 142.948H73.4263V157.139H72.9437C72.9059 157.139 72.8684 157.147 72.8334 157.162C72.7984 157.176 72.7666 157.198 72.7398 157.225C72.713 157.253 72.6918 157.285 72.6773 157.321C72.6628 157.357 72.6554 157.395 72.6554 157.434V158.421C72.6554 158.46 72.6628 158.498 72.6773 158.534C72.6918 158.57 72.713 158.602 72.7398 158.63C72.7666 158.657 72.7984 158.679 72.8334 158.693C72.8684 158.708 72.9059 158.716 72.9437 158.716H95.4961C95.534 158.716 95.5714 158.708 95.6064 158.693C95.6414 158.679 95.6732 158.657 95.7 158.63C95.7268 158.602 95.748 158.57 95.7625 158.534C95.777 158.498 95.7845 158.46 95.7845 158.421V157.434C95.7845 157.395 95.777 157.357 95.7625 157.321C95.748 157.285 95.7268 157.253 95.7 157.225C95.6732 157.198 95.6414 157.176 95.6064 157.162C95.5715 157.147 95.534 157.139 95.4961 157.139H95.0135V142.948H131.342C131.634 142.948 131.922 142.89 132.192 142.775C132.461 142.661 132.706 142.494 132.912 142.283C133.118 142.073 133.281 141.822 133.393 141.547C133.505 141.272 133.562 140.976 133.562 140.678V133.488H34.8779Z" fill="#3F3D56"/>
<path d="M83.0275 112.85C88.0486 112.85 92.119 108.687 92.119 103.553C92.119 98.4181 88.0486 94.2557 83.0275 94.2557C78.0064 94.2557 73.9359 98.4181 73.9359 103.553C73.9359 108.687 78.0064 112.85 83.0275 112.85Z" fill="#608AF5"/>
<path d="M106.192 51.3747H104.74C104.74 40.1495 93.8755 32.7937 82.9157 32.7877C81.3216 32.7829 79.7309 32.9411 78.1676 33.2599C76.4077 33.6192 74.5811 34.0498 72.7864 34.6111C65.7092 36.8294 59.1461 41.1176 59.1461 51.3747C59.1446 53.3667 59.3925 55.3507 59.8837 57.2784L58.4782 57.6526C57.9568 55.6026 57.6933 53.4929 57.6941 51.3747C57.6941 42.4123 61.2922 36.2563 67.5068 32.5858C70.7739 30.6555 74.7611 29.4112 79.3292 28.8054C81.2301 28.5468 83.1519 28.4871 85.0647 28.6272C97.6682 29.5538 106.192 39.4367 106.192 51.3747Z" fill="#608AF5"/>
<path d="M108.611 52.1973L108.039 47.8735C107.897 46.7816 107.383 45.7759 106.587 45.0345C106.075 44.5512 105.463 44.1931 104.796 43.9873C104.13 43.7815 103.426 43.7334 102.739 43.8466L101.83 43.9743C101.581 44.0078 101.341 44.0915 101.124 44.2204C100.908 44.3494 100.718 44.5211 100.566 44.7257C100.414 44.9295 100.302 45.1622 100.238 45.4105C100.173 45.6587 100.158 45.9175 100.192 46.1719L101.513 56.1321C101.568 56.538 101.746 56.9162 102.022 57.213C102.298 57.5099 102.659 57.7104 103.052 57.7862C103.169 57.8101 103.288 57.822 103.407 57.8218C103.492 57.8218 103.578 57.8158 103.662 57.804L104.679 57.6644C105.298 57.5803 105.895 57.3675 106.431 57.0392C106.967 56.7108 107.432 56.2738 107.798 55.7549C107.876 55.6421 107.951 55.5263 108.021 55.4075C108.565 54.4358 108.773 53.3047 108.611 52.1973Z" fill="#608AF5"/>
<path d="M101.243 44.1555C100.977 44.288 100.745 44.4834 100.566 44.7257C100.414 44.9295 100.302 45.1623 100.238 45.4105C100.173 45.6587 100.158 45.9175 100.192 46.1719L101.513 56.1321C101.568 56.538 101.746 56.9162 102.022 57.2131C102.298 57.5099 102.659 57.7104 103.052 57.7862L101.243 44.1555Z" fill="white"/>
<path d="M108.611 52.1973L108.039 47.8735C107.897 46.7816 107.383 45.7759 106.587 45.0345L107.902 54.9442C107.922 55.1033 107.962 55.259 108.021 55.4075C108.565 54.4358 108.773 53.3047 108.611 52.1973Z" fill="#3F3D56"/>
<path d="M104.089 55.3126C104.486 55.2575 104.686 54.2906 104.535 53.153C104.384 52.0153 103.94 51.1378 103.543 51.1929C103.145 51.248 102.946 52.2149 103.096 53.3526C103.247 54.4902 103.692 55.3678 104.089 55.3126Z" fill="#3F3D56"/>
<path d="M103.218 49.9673C103.615 49.9122 103.815 48.9453 103.664 47.8076C103.513 46.67 103.069 45.7924 102.671 45.8475C102.274 45.9027 102.074 46.8696 102.225 48.0072C102.376 49.1449 102.821 50.0224 103.218 49.9673Z" fill="#3F3D56"/>
<path d="M108.736 52.0461C109.133 51.9909 109.333 51.024 109.182 49.8864C109.031 48.7487 108.586 47.8712 108.189 47.9263C107.792 47.9814 107.592 48.9483 107.743 50.086C107.894 51.2236 108.338 52.1012 108.736 52.0461Z" fill="#3F3D56"/>
<path d="M82.9157 32.7877C81.3216 32.7829 79.731 32.9411 78.1676 33.2599C76.4077 33.6192 74.5811 34.0498 72.7864 34.6111C69.984 34.4715 67.9221 33.7291 67.5068 32.5858C70.7739 30.6555 74.7611 29.4112 79.3292 28.8054C81.2301 28.5468 83.1519 28.4871 85.0647 28.6272C85.2672 28.7486 85.4423 28.9125 85.5784 29.108C85.7145 29.3035 85.8087 29.5263 85.8546 29.7616C85.9911 30.7951 84.8382 31.8938 82.9157 32.7877Z" fill="#3F3D56"/>
<path d="M64.3763 61.6794L62.1402 52.1736C62.0604 51.8306 61.8834 51.5194 61.6312 51.279C61.3791 51.0386 61.0631 50.8797 60.723 50.8224C60.6269 50.8071 60.5298 50.7991 60.4326 50.7986C60.2956 50.7991 60.1591 50.816 60.026 50.8491L59.1606 51.0629C58.0464 51.3385 57.0845 52.0548 56.4862 53.0547C55.8879 54.0546 55.7019 55.2564 55.9691 56.3964L56.971 60.6608C57.1997 61.6647 57.7445 62.5641 58.5217 63.2206C58.6477 63.3246 58.7795 63.4208 58.9167 63.5087C59.4035 63.8207 59.9464 64.0298 60.5135 64.1236C61.0807 64.2175 61.6604 64.1942 62.2186 64.0551L63.0811 63.8413C63.3091 63.7869 63.5237 63.6848 63.7112 63.5414C63.9902 63.3334 64.2023 63.0454 64.3207 62.7138C64.4391 62.3823 64.4585 62.0222 64.3763 61.6794Z" fill="#608AF5"/>
<path d="M59.6885 59.9107C60.0783 59.8148 60.1814 58.8321 59.9187 57.7159C59.6561 56.5997 59.1271 55.7727 58.7373 55.8686C58.3474 55.9645 58.2443 56.9471 58.507 58.0633C58.7697 59.1795 59.2986 60.0066 59.6885 59.9107Z" fill="#3F3D56"/>
<path d="M56.7844 60.8016C57.1743 60.7057 57.2774 59.723 57.0147 58.6068C56.752 57.4906 56.223 56.6636 55.8332 56.7595C55.4434 56.8554 55.3403 57.838 55.603 58.9542C55.8656 60.0704 56.3946 60.8975 56.7844 60.8016Z" fill="#3F3D56"/>
<path d="M64.5186 61.6437L62.2825 52.1379C62.1953 51.7668 62.0031 51.4303 61.7298 51.1704C61.4566 50.9105 61.1144 50.7388 60.7462 50.6768L63.7984 63.6601C64.0998 63.4344 64.3291 63.1224 64.4572 62.7635C64.5854 62.4047 64.6068 62.015 64.5186 61.6437Z" fill="white"/>
<path d="M56.4744 54.5136C56.4127 54.2493 56.2969 54.0013 56.1346 53.7861C55.8203 54.6185 55.7625 55.5294 55.9691 56.3964L56.971 60.6608C57.1997 61.6647 57.7446 62.5641 58.5217 63.2206L56.4744 54.5136Z" fill="#3F3D56"/>
</g>
<defs>
<clipPath id="clip0_73_320">
<rect width="247" height="220" fill="white"/>
</clipPath>
</defs>
</svg>
