<svg width="84" height="82" viewBox="0 0 84 82" fill="none" xmlns="http://www.w3.org/2000/svg">
<path d="M42 0.361328C32.1062 0.361738 22.5353 3.88264 14.9999 10.294C7.46448 16.7054 2.45629 25.5889 0.871421 35.355C-0.713445 45.1211 1.22844 55.1325 6.34961 63.5978C11.4708 72.0631 19.4371 78.43 28.823 81.5592C30.9064 81.9239 31.6876 80.6739 31.6876 79.58C31.6876 78.5905 31.6355 75.3092 31.6355 71.8197C21.1667 73.7467 18.4584 69.2677 17.625 66.9239C16.7003 64.6445 15.2345 62.6244 13.3542 61.0384C11.8959 60.2572 9.81253 58.3301 13.3021 58.2781C14.6345 58.4227 15.9125 58.8863 17.0277 59.6297C18.1428 60.3732 19.0624 61.3745 19.7084 62.5488C20.2782 63.5725 21.0445 64.4738 21.9633 65.2009C22.8821 65.9279 23.9353 66.4666 25.0627 66.7859C26.19 67.1052 27.3692 67.199 28.5329 67.0618C29.6965 66.9246 30.8216 66.5591 31.8437 65.9863C32.0241 63.868 32.9681 61.8875 34.5 60.4135C25.2292 59.3719 15.5417 55.778 15.5417 39.8406C15.4831 35.6996 17.0112 31.693 19.8125 28.6427C18.5387 25.0436 18.6878 21.0939 20.2292 17.601C20.2292 17.601 23.7187 16.5072 31.6875 21.8719C38.5054 19.9968 45.703 19.9968 52.5209 21.8719C60.4895 16.4552 63.9792 17.601 63.9792 17.601C65.5209 21.0938 65.6699 25.0436 64.3959 28.6427C67.2056 31.6878 68.735 35.6978 68.6667 39.8406C68.6667 55.8301 58.927 59.3719 49.6563 60.4135C50.6507 61.4214 51.4165 62.6314 51.9018 63.9615C52.3871 65.2915 52.5805 66.7105 52.4688 68.1219C52.4688 73.6949 52.4167 78.1739 52.4167 79.5802C52.4167 80.674 53.1979 81.976 55.2812 81.5594C64.6507 78.4046 72.5941 72.0229 77.6934 63.5532C82.7928 55.0835 84.7162 45.0773 83.1204 35.3206C81.5245 25.564 76.5133 16.692 68.9811 10.2885C61.449 3.88487 51.8863 0.366474 42 0.361328V0.361328Z" fill="white"/>
</svg>
