<svg width="819" height="419" viewBox="0 0 819 419" fill="none" xmlns="http://www.w3.org/2000/svg">
<path d="M0 419L27.3 398.05C54.6 377.1 109.2 335.2 163.8 335.2C218.4 335.2 273 377.1 327.6 377.1C382.2 377.1 436.8 335.2 491.4 328.26C546 320.797 600.6 349.603 655.2 342.14C709.8 335.2 764.4 293.3 791.7 272.35L819 251.4V419H791.7C764.4 419 709.8 419 655.2 419C600.6 419 546 419 491.4 419C436.8 419 382.2 419 327.6 419C273 419 218.4 419 163.8 419C109.2 419 54.6 419 27.3 419H0Z" fill="#4581F6"/>
</svg>
